<mxfile host="app.diagrams.net" modified="2023-09-27T10:30:27.531Z" agent="Mozilla/5.0 (Macintosh; Intel Mac OS X 10_15_7) AppleWebKit/537.36 (KHTML, like Gecko) Chrome/117.0.0.0 Safari/537.36" version="21.8.2" etag="-cjrkGjW6n7o1muT9Wk_" type="github">
  <diagram name="페이지-1" id="Mk4FH-SQF67zFcSOXKV8">
    <mxGraphModel>
      <root>
        <mxCell id="0" />
        <mxCell id="1" parent="0" />
      </root>
    </mxGraphModel>
  </diagram>
</mxfile>
